<svg xmlns="http://www.w3.org/2000/svg" viewBox="0 0 68 68">
  <path d="m42.423,55.884h-3.89c-0.393,0 -0.75,-0.23 -0.912,-0.588 -0.162,-0.358 -0.099,-0.778 0.162,-1.073l3.685,-4.179h-2.935c-0.393,0 -0.749,-0.23 -0.911,-0.588 -0.162,-0.358 -0.099,-0.777 0.16,-1.072l3.691,-4.2h-2.94c-0.379,0 -0.726,-0.215 -0.896,-0.555 -0.169,-0.339 -0.131,-0.746 0.098,-1.048l10.29,-13.61c0.189,-0.25 0.484,-0.397 0.797,-0.397h0c0.313,0 0.608,0.146 0.797,0.396l10.32,13.61c0.229,0.302 0.268,0.709 0.099,1.049 -0.169,0.34 -0.516,0.555 -0.896,0.555h-2.95l3.691,4.2c0.259,0.295 0.322,0.714 0.16,1.072 -0.162,0.358 -0.519,0.588 -0.911,0.588h-2.933l0.952,1.078c0.234,0.266 0.311,0.635 0.201,0.972 -0.11,0.336 -0.389,0.59 -0.735,0.667l-13.979,3.1c-0.071,0.016 -0.144,0.024 -0.217,0.024zM40.748,53.884h1.565l12.217,-2.71 -1.296,-1.468c-0.26,-0.295 -0.324,-0.715 -0.162,-1.073s0.519,-0.589 0.912,-0.589h2.94l-3.691,-4.2c-0.259,-0.295 -0.322,-0.714 -0.16,-1.072 0.162,-0.358 0.519,-0.588 0.911,-0.588h3.146l-8.306,-10.953 -8.281,10.953h3.14c0.393,0 0.749,0.23 0.911,0.588 0.162,0.358 0.099,0.777 -0.16,1.072l-3.691,4.2h2.94c0.393,0 0.75,0.23 0.912,0.588 0.162,0.358 0.099,0.778 -0.162,1.073z" fill="#5b0b6e"/>
  <path d="m4.576,64.286c-0.458,0 -0.872,-0.317 -0.975,-0.783 -0.12,-0.539 0.22,-1.073 0.759,-1.193l61.237,-13.597c0.54,-0.123 1.073,0.22 1.193,0.759 0.12,0.539 -0.22,1.073 -0.759,1.193l-0.008,0.002 -61.229,13.595c-0.073,0.017 -0.146,0.024 -0.218,0.024z" fill="#5b0b6e"/>
  <path d="m15.176,61.053c-1.968,0 -3.569,-1.601 -3.569,-3.569 -0.087,-1.152 -0.871,-11.912 -0.871,-12.664 0,-0.5 0.37,-0.924 0.866,-0.991l6.392,-0.861c0.211,-0.028 0.422,0.011 0.608,0.111l2.574,1.388c0.563,0.301 1.054,0.781 1.379,1.351l3.959,6.774c0.994,1.7 0.42,3.894 -1.281,4.889 -0.826,0.482 -1.79,0.614 -2.715,0.371 -0.925,-0.244 -1.699,-0.833 -2.18,-1.66l-1.594,-2.742v4.036c-0,1.968 -1.601,3.569 -3.569,3.569zM12.782,45.689c0.134,2.168 0.536,7.797 0.823,11.723 0.002,0.938 0.707,1.642 1.572,1.642 0.865,0 1.569,-0.704 1.569,-1.569v-7.746c0,-0.452 0.303,-0.848 0.74,-0.965 0.436,-0.12 0.897,0.071 1.125,0.463l3.458,5.949c0.211,0.364 0.552,0.624 0.96,0.731 0.409,0.108 0.833,0.05 1.196,-0.163 0.749,-0.438 1.002,-1.404 0.564,-2.153l-3.964,-6.783c-0.146,-0.255 -0.355,-0.461 -0.593,-0.589l-2.292,-1.235z" fill="#5b0b6e"/>
  <path d="m22.046,43.591c-0.546,0 -1.084,-0.136 -1.566,-0.4l-1.806,-1.009c-0.482,-0.27 -0.655,-0.878 -0.385,-1.361 0.269,-0.482 0.877,-0.656 1.361,-0.385l1.799,1.005c0.264,0.144 0.581,0.187 0.887,0.118l4.512,-1.051c0.318,-0.074 0.588,-0.268 0.762,-0.548 0.174,-0.281 0.229,-0.611 0.155,-0.931 -0.15,-0.643 -0.773,-1.076 -1.489,-0.915l-3.662,0.858c-0.219,0.05 -0.449,0.027 -0.652,-0.068l-3.839,-1.799c-0.5,-0.234 -0.715,-0.83 -0.481,-1.33 0.234,-0.5 0.83,-0.715 1.33,-0.481l3.525,1.652 3.336,-0.782c1.872,-0.417 3.482,0.708 3.881,2.411 0.403,1.739 -0.679,3.479 -2.412,3.881l-4.516,1.052c-0.245,0.056 -0.493,0.083 -0.739,0.083z" fill="#5b0b6e"/>
  <path d="m35.323,56.794c-0.396,0 -0.771,-0.237 -0.928,-0.626l-6.421,-15.907c-0.207,-0.512 0.041,-1.095 0.553,-1.302 0.515,-0.207 1.096,0.042 1.302,0.553l6.421,15.907c0.207,0.512 -0.041,1.095 -0.553,1.302 -0.123,0.05 -0.25,0.073 -0.374,0.073z" fill="#5b0b6e"/>
  <path d="m11.736,45.821c-0.241,0 -0.475,-0.087 -0.658,-0.247 -0.217,-0.19 -0.342,-0.464 -0.342,-0.753v-6.572c0,-1.272 0.499,-2.464 1.405,-3.357 0.906,-0.893 2.064,-1.36 3.378,-1.356 2.561,0.038 4.645,2.152 4.645,4.713v5.569c0,0.5 -0.37,0.924 -0.866,0.991l-7.427,1.003c-0.044,0.006 -0.089,0.009 -0.134,0.009zM15.449,35.535c-0.717,0 -1.392,0.276 -1.904,0.781 -0.521,0.514 -0.809,1.201 -0.809,1.933v5.428l5.427,-0.733v-4.695c0,-1.474 -1.2,-2.691 -2.674,-2.713 -0.014,-0 -0.027,-0 -0.041,-0z" fill="#5b0b6e"/>
  <path d="m16.163,33.014c-0.808,0 -1.616,-0.154 -2.388,-0.463 -1.594,-0.637 -2.844,-1.857 -3.52,-3.434 -0.676,-1.577 -0.696,-3.322 -0.058,-4.914 0.638,-1.59 1.858,-2.838 3.435,-3.514 1.578,-0.676 3.321,-0.698 4.911,-0.063 1.59,0.636 2.837,1.854 3.513,3.431 0.676,1.577 0.699,3.322 0.065,4.914 -0.635,1.594 -1.854,2.844 -3.43,3.519 -0.813,0.349 -1.67,0.523 -2.529,0.523zM16.164,22.167c-0.591,0 -1.183,0.12 -1.743,0.36 -1.087,0.466 -1.927,1.326 -2.367,2.421 -0.439,1.096 -0.425,2.296 0.04,3.381 0.465,1.086 1.327,1.926 2.424,2.365s2.3,0.424 3.386,-0.041c1.085,-0.465 1.923,-1.325 2.36,-2.421 0.437,-1.097 0.421,-2.299 -0.045,-3.386 -0.465,-1.086 -1.324,-1.925 -2.418,-2.362 -0.529,-0.211 -1.083,-0.317 -1.637,-0.317z" fill="#5b0b6e"/>
  <path d="m11.175,29.723c-0.388,0 -0.757,-0.228 -0.919,-0.606 -0.218,-0.508 0.018,-1.096 0.525,-1.313l14.446,-6.192c0.509,-0.219 1.096,0.018 1.313,0.525 0.218,0.508 -0.018,1.096 -0.525,1.313l-14.446,6.192c-0.128,0.055 -0.262,0.082 -0.394,0.082z" fill="#5b0b6e"/>
  <path d="m54.616,21.727c-3.739,0 -6.78,-3.042 -6.78,-6.78s3.042,-6.78 6.78,-6.78 6.78,3.042 6.78,6.78 -3.042,6.78 -6.78,6.78zM54.616,10.166c-2.636,0 -4.78,2.145 -4.78,4.78s2.145,4.78 4.78,4.78 4.78,-2.145 4.78,-4.78 -2.145,-4.78 -4.78,-4.78z" fill="#5b0b6e"/>
  <path d="m54.616,7.719c-0.552,0 -1,-0.448 -1,-1v-3.733c0,-0.552 0.448,-1 1,-1s1,0.448 1,1v3.733c0,0.552 -0.448,1 -1,1z" fill="#5b0b6e"/>
  <path d="m54.616,27.907c-0.552,0 -1,-0.448 -1,-1v-3.733c0,-0.552 0.448,-1 1,-1s1,0.448 1,1v3.733c0,0.552 -0.448,1 -1,1z" fill="#5b0b6e"/>
  <path d="m60.434,10.129c-0.256,0 -0.512,-0.098 -0.707,-0.293 -0.391,-0.391 -0.391,-1.024 0,-1.414l2.64,-2.64c0.391,-0.391 1.023,-0.391 1.414,0 0.391,0.391 0.391,1.024 0,1.414l-2.64,2.64c-0.195,0.195 -0.451,0.293 -0.707,0.293z" fill="#5b0b6e"/>
  <path d="m46.159,24.404c-0.256,0 -0.512,-0.098 -0.707,-0.293 -0.391,-0.391 -0.391,-1.024 0,-1.414l2.64,-2.64c0.391,-0.391 1.023,-0.391 1.414,0s0.391,1.024 0,1.414l-2.64,2.64c-0.195,0.195 -0.451,0.293 -0.707,0.293z" fill="#5b0b6e"/>
  <path d="m62.844,15.947c-0.552,0 -1,-0.448 -1,-1s0.448,-1 1,-1l3.733,-0c0.552,0 1,0.448 1,1s-0.448,1 -1,1z" fill="#5b0b6e"/>
  <path d="m46.39,15.948h-3.733c-0.552,0 -1,-0.448 -1,-1s0.448,-1 1,-1h3.733c0.552,0 1,0.448 1,1s-0.448,1 -1,1z" fill="#5b0b6e"/>
  <path d="m63.074,24.404c-0.256,0 -0.512,-0.098 -0.707,-0.293l-2.64,-2.64c-0.391,-0.39 -0.391,-1.023 0,-1.414s1.023,-0.391 1.414,0l2.64,2.64c0.391,0.39 0.391,1.023 0,1.414 -0.195,0.195 -0.451,0.293 -0.707,0.293z" fill="#5b0b6e"/>
  <path d="m48.799,10.13c-0.256,0 -0.512,-0.098 -0.707,-0.293l-2.64,-2.64c-0.391,-0.39 -0.391,-1.023 0,-1.414s1.023,-0.391 1.414,0l2.64,2.64c0.391,0.39 0.391,1.023 0,1.414 -0.195,0.195 -0.451,0.293 -0.707,0.293z" fill="#5b0b6e"/>
  <path d="m11.736,50.689h-6.828c-0.552,0 -1,-0.448 -1,-1v-10.011c0,-0.552 0.448,-1 1,-1h6.828c0.552,0 1,0.448 1,1s-0.448,1 -1,1h-5.828v8.011h5.828c0.552,0 1,0.448 1,1s-0.448,1 -1,1z" fill="#5b0b6e"/>
  <path d="m11.736,47.559h-6.828c-0.552,0 -1,-0.448 -1,-1s0.448,-1 1,-1h6.828c0.552,0 1,0.448 1,1s-0.448,1 -1,1z" fill="#5b0b6e"/>
  <path d="m65.814,66.014h-64.391c-0.457,0 -0.855,-0.31 -0.969,-0.752s0.088,-0.906 0.488,-1.125l3.154,-1.728c0.083,-0.045 0.171,-0.079 0.264,-0.099l61.237,-13.597c0.295,-0.065 0.606,0.006 0.843,0.196 0.236,0.189 0.374,0.477 0.374,0.78v15.325c0,0.552 -0.448,1 -1,1zM5.911,64.014h58.903v-13.078z" fill="#5b0b6e"/>
  <path d="m38.532,63.14c-0.181,0 -0.365,-0.049 -0.53,-0.152 -0.468,-0.293 -0.61,-0.91 -0.317,-1.378l1.307,-2.086c0.188,-0.299 0.513,-0.486 0.871,-0.469l14.437,0.329 3.866,-2.837c0.445,-0.328 1.072,-0.231 1.398,0.214 0.327,0.445 0.231,1.071 -0.214,1.398l-4.14,3.038c-0.178,0.131 -0.398,0.202 -0.615,0.193l-14.208,-0.323 -1.005,1.604c-0.19,0.303 -0.516,0.469 -0.849,0.469z" fill="#5b0b6e"/>
</svg>