<svg xmlns="http://www.w3.org/2000/svg" viewBox="0 0 511.05 511.05">
  <path d="m323.03,316.8c0,-41.06 -26.17,-77.38 -65.13,-90.36l-2.37,-0.79 -2.37,0.79c-38.96,12.98 -65.13,49.3 -65.13,90.36v1.75h15c0.03,-0.1 -2.56,-56.79 52.5,-77.05 31.51,11.6 52.5,41.54 52.5,75.3v99h15v-22.84l82.99,58.1h-36.49v15h38.5v15h-85v-50.25h-15v35.25h-56.5v15h56.5v15h-105v-162.5h-15v41.1l-43.55,30.49 8.6,12.29 34.95,-24.47v88.1h-85v-15h38.5v-15h-36.49l35.76,-25.03 -8.6,-12.29 -44.16,30.91v51.4h100v15h135v-15h100v-51.4l-100,-70z" fill="#5b0b6e"/>
  <path d="m156.53,451.05h15v15h-15z" fill="#5b0b6e"/>
  <path d="m339.53,451.05h15v15h-15z" fill="#5b0b6e"/>
  <path d="m288.03,311.55c0,-17.92 -14.58,-32.5 -32.5,-32.5s-32.5,14.58 -32.5,32.5 14.58,32.5 32.5,32.5 32.5,-14.58 32.5,-32.5zM238.03,311.55c0,-9.65 7.85,-17.5 17.5,-17.5s17.5,7.85 17.5,17.5 -7.85,17.5 -17.5,17.5 -17.5,-7.85 -17.5,-17.5z" fill="#5b0b6e"/>
  <path d="m28.25,106.05h29.27v-15h-27.13c1.23,-5.51 2.93,-10.86 5.06,-16h43.07v-15h-35.27c10.7,-16.79 26.56,-30.25 46.03,-38.04l-5.58,-13.92c-79.69,31.93 -96.26,138.93 -27.74,192.9l9.28,-11.78c-25.23,-19.87 -39.14,-50.46 -37,-83.14z" fill="#5b0b6e"/>
  <path d="m238.03,112.55c0,-72.46 -68.03,-126.51 -139.02,-109.35l3.52,14.58c18.26,-4.41 38.44,-3.64 57.47,3.57 -25.22,40.23 17.94,88.01 60.29,68.25 20.36,84.09 -70.56,149.62 -143.52,107.41l-7.51,12.98c73.97,42.79 168.77,-10.3 168.77,-97.44zM173.7,27.81c18.7,10.67 33.54,27.36 41.88,47.4 -30.09,16.22 -61.52,-19.64 -41.88,-47.4z" fill="#5b0b6e"/>
  <path d="m420.53,20.05c-42.73,0 -77.5,34.77 -77.5,77.5 0,58.81 63.27,96.14 114.65,68.03l-7.2,-13.16c-41.42,22.67 -92.45,-7.45 -92.45,-54.87 0,-34.46 28.04,-62.5 62.5,-62.5 27.65,0 51.16,18.06 59.37,43h-28.37v15h31.32c0.34,4.74 0.22,9.51 -0.72,15h-44.6v15h40.05c-3.68,8.24 -9.14,15.68 -16.12,21.74l9.83,11.33c53.83,-46.69 21.07,-136.07 -50.75,-136.07z" fill="#5b0b6e"/>
  <path d="m295.53,205.05c20.68,0 37.5,-16.82 37.5,-37.5s-16.82,-37.5 -37.5,-37.5 -37.5,16.82 -37.5,37.5 16.82,37.5 37.5,37.5zM295.53,145.05c12.41,0 22.5,10.09 22.5,22.5s-10.09,22.5 -22.5,22.5 -22.5,-10.09 -22.5,-22.5 10.09,-22.5 22.5,-22.5z" fill="#5b0b6e"/>
  <path d="m105.53,175.05c20.68,0 37.5,-16.82 37.5,-37.5s-16.82,-37.5 -37.5,-37.5 -37.5,16.82 -37.5,37.5 16.82,37.5 37.5,37.5zM105.53,115.05c12.41,0 22.5,10.09 22.5,22.5s-10.09,22.5 -22.5,22.5 -22.5,-10.09 -22.5,-22.5 10.09,-22.5 22.5,-22.5z" fill="#5b0b6e"/>
  <path d="m149.03,347.55c0,-20.68 -16.82,-37.5 -37.5,-37.5s-37.5,16.82 -37.5,37.5 16.82,37.5 37.5,37.5 37.5,-16.82 37.5,-37.5zM89.03,347.55c0,-12.41 10.09,-22.5 22.5,-22.5s22.5,10.09 22.5,22.5 -10.09,22.5 -22.5,22.5 -22.5,-10.09 -22.5,-22.5z" fill="#5b0b6e"/>
  <path d="m431.53,220.05c-20.68,0 -37.5,16.82 -37.5,37.5s16.82,37.5 37.5,37.5 37.5,-16.82 37.5,-37.5 -16.82,-37.5 -37.5,-37.5zM431.53,280.05c-12.41,0 -22.5,-10.09 -22.5,-22.5s10.09,-22.5 22.5,-22.5 22.5,10.09 22.5,22.5 -10.09,22.5 -22.5,22.5z" fill="#5b0b6e"/>
  <path d="m45.03,240.05h15v15h-15z" fill="#5b0b6e"/>
  <path d="m45.03,290.05h15v15h-15z" fill="#5b0b6e"/>
  <path d="m70.03,265.05h15v15h-15z" fill="#5b0b6e"/>
  <path d="m20.03,265.05h15v15h-15z" fill="#5b0b6e"/>
  <path d="m386.03,321.05h15v15h-15z" fill="#5b0b6e"/>
  <path d="m386.03,371.05h15v15h-15z" fill="#5b0b6e"/>
  <path d="m411.03,346.05h15v15h-15z" fill="#5b0b6e"/>
  <path d="m361.03,346.05h15v15h-15z" fill="#5b0b6e"/>
  <path d="m221.53,466.05h15v15h-15z" fill="#5b0b6e"/>
  <path d="m407.53,108.05h15v15h-15z" fill="#5b0b6e"/>
  <path d="m167.53,149.05h15v15h-15z" fill="#5b0b6e"/>
</svg>