<svg xmlns="http://www.w3.org/2000/svg" viewBox="0 0 56 56">
  <path d="m20.059,26c0.375,3.3 2.534,6.126 5.618,7.357 -1.049,-2.313 -1.613,-4.817 -1.657,-7.357z" fill="#5b0b6e"/>
  <path d="m20.059,24h3.961c0.044,-2.54 0.608,-5.044 1.657,-7.357 -3.084,1.231 -5.243,4.057 -5.618,7.357z" fill="#5b0b6e"/>
  <path d="m30,3.723v5.277h9.235z" fill="#5b0b6e"/>
  <path d="m29,34c1.147,0 2.781,-3.084 2.98,-8h-5.96c0.199,4.916 1.833,8 2.98,8z" fill="#5b0b6e"/>
  <path d="m10,9.65v38.45c0.654,-0.058 1.318,-0.1 2,-0.1s1.346,0.04 2,0.1v-38.45c-1.292,0.467 -2.708,0.467 -4,0z" fill="#5b0b6e"/>
  <path d="M12,4m-4,0a4,4 0,1 1,8 0a4,4 0,1 1,-8 0" fill="#5b0b6e"/>
  <path d="m12,50c-4.944,0 -9.3,1.852 -11.113,4.406 -0.22,0.306 -0.251,0.709 -0.08,1.045 0.171,0.336 0.516,0.548 0.893,0.549h20.6c0.377,-0.002 0.721,-0.214 0.892,-0.549s0.14,-0.739 -0.08,-1.045c-1.807,-2.554 -6.168,-4.406 -11.112,-4.406z" fill="#5b0b6e"/>
  <path d="m29,16c-1.147,0 -2.781,3.084 -2.98,8h5.96c-0.199,-4.916 -1.833,-8 -2.98,-8z" fill="#5b0b6e"/>
  <path d="m41,11h-24c-0.552,0 -1,0.448 -1,1v26c0,0.552 0.448,1 1,1h24c0.552,0 1,-0.448 1,-1v-26c0,-0.552 -0.448,-1 -1,-1zM29,36c-6.075,0 -11,-4.925 -11,-11s4.925,-11 11,-11 11,4.925 11,11c-0.007,6.072 -4.928,10.993 -11,11z" fill="#5b0b6e"/>
  <path d="m32.323,16.643c1.049,2.313 1.613,4.817 1.657,7.357h3.961c-0.375,-3.3 -2.534,-6.126 -5.618,-7.357z" fill="#5b0b6e"/>
  <path d="m49.034,17.941c-0.314,-0.588 -0.314,-1.295 0,-1.883l6.18,-11.587c0.165,-0.31 0.156,-0.684 -0.024,-0.985 -0.181,-0.301 -0.506,-0.486 -0.858,-0.486h-21.567l10.735,6.132 -0.008,0.013c0.311,0.173 0.505,0.499 0.508,0.855v21h10.332c0.351,-0 0.677,-0.184 0.858,-0.486 0.181,-0.301 0.19,-0.675 0.024,-0.985z" fill="#5b0b6e"/>
  <path d="m32.323,33.357c3.084,-1.231 5.243,-4.057 5.618,-7.357h-3.961c-0.044,2.54 -0.608,5.044 -1.657,7.357z" fill="#5b0b6e"/>
</svg>