<svg xmlns="http://www.w3.org/2000/svg" viewBox="0 0 512 512">
  <path d="m354.83,102.69c0,-2.76 2.24,-5 5,-5h54.62c2.76,0 5,2.24 5,5s-2.24,5 -5,5h-54.62c-2.76,0 -5,-2.24 -5,-5zM132.72,178.85v255.97c0,22.03 17.93,39.96 39.96,39.96h235.86c22.03,0 39.96,-17.93 39.96,-39.96v-250.97c0,-2.18 -1.41,-4.1 -3.48,-4.77 -61.27,-19.54 -104.8,-9.07 -146.89,1.06 -46.7,11.24 -90.82,21.85 -158.51,-5.92 -1.54,-0.63 -3.3,-0.45 -4.68,0.48 -1.38,0.92 -2.22,2.48 -2.22,4.15zM379.83,433.3h34.62c2.76,0 5,2.24 5,5s-2.24,5 -5,5h-34.62c-2.76,0 -5,-2.24 -5,-5s2.24,-5 5,-5zM359.83,385.36h54.62c2.76,0 5,2.23 5,5 0,2.76 -2.24,5 -5,5h-54.62c-2.76,0 -5,-2.24 -5,-5 0,-2.77 2.24,-5 5,-5zM379.83,347.41c-2.76,0 -5,-2.24 -5,-5s2.24,-5 5,-5h34.62c2.76,0 5,2.24 5,5s-2.24,5 -5,5zM414.45,299.47h-54.62c-2.76,0 -5,-2.24 -5,-5s2.24,-5 5,-5h54.62c2.76,0 5,2.24 5,5s-2.24,5 -5,5zM414.45,251.52h-34.62c-2.76,0 -5,-2.24 -5,-5s2.24,-5 5,-5h34.62c2.76,0 5,2.24 5,5s-2.24,5 -5,5zM414.45,203.58h-54.62c-2.76,0 -5,-2.24 -5,-5s2.24,-5 5,-5h54.62c2.76,0 5,2.24 5,5s-2.24,5 -5,5zM419.45,150.63c0,2.76 -2.24,5 -5,5h-34.62c-2.76,0 -5,-2.24 -5,-5s2.24,-5 5,-5h34.62c2.76,0 5,2.24 5,5zM472,42.53h-339.39c-0.44,0 -0.88,0.06 -1.3,0.18l-88.52,23.71c-2.76,0.74 -5.65,0.36 -8.14,-1.08s-4.26,-3.75 -5,-6.5c-1.55,-5.76 1.85,-11.69 7.56,-13.22l91.9,-24.62h342.89c5.91,0 10.73,4.84 10.73,10.8 0,5.92 -4.82,10.73 -10.73,10.73zM408.54,491c30.97,0 56.18,-25.2 56.18,-56.18v-382.29h-331.46l-78.28,20.98 36.45,28.88c16.41,13 25.08,30.93 25.08,51.87v280.56c0,30.98 25.2,56.18 56.17,56.18zM492.73,31.8c0,-11.47 -9.3,-20.8 -20.73,-20.8h-343.55c-0.43,0 -0.87,0.05 -1.29,0.17l-92.53,24.79c-11.05,2.96 -17.61,14.38 -14.64,25.46 2.48,9.26 10.87,15.37 20.03,15.37 0.91,0 1.84,-0.06 2.76,-0.19l42.44,33.63c13.93,11.03 21.29,26.26 21.29,44.03v280.56c0,36.49 29.68,66.18 66.17,66.18h235.86c36.49,0 66.18,-29.69 66.18,-66.18v-382.49c10.14,-1.33 18.01,-10.02 18.01,-20.53z" fill="#a2314d"/>
</svg>