<svg xmlns="http://www.w3.org/2000/svg" viewBox="0 0 56 49">
  <path d="m15.529,22.886 l-15.044,15.043 -0.152,0.68c-0.148,0.668 0.055,1.365 0.539,1.849l1.128,1.128 14.594,-14.594z" fill="#5b0b6e"/>
  <path d="m13.881,16.533 l-3.174,3.174 -7.935,7.935 -1.479,6.65 13.653,-13.652z" fill="#5b0b6e"/>
  <path d="m2.907,10.2c0.028,0.22 0.128,0.425 0.285,0.583l6.808,6.803 3.7,-3.7 3.105,-3.105c0.157,-0.158 0.257,-0.363 0.285,-0.583l0.493,-3.947c0.072,-0.569 -0.104,-1.142 -0.483,-1.573s-0.926,-0.678 -1.5,-0.678h-11.2c-0.574,-0 -1.12,0.246 -1.5,0.676 -0.38,0.43 -0.557,1.003 -0.486,1.572z" fill="#5b0b6e"/>
  <path d="m8.586,19 l-3.185,-3.185 -1.821,8.191z" fill="#5b0b6e"/>
  <path d="m17.176,29.238 l-13.762,13.762 2.586,2.586 12.241,-12.241z" fill="#5b0b6e"/>
  <path d="m50,27v-4c0,-0.552 -0.448,-1 -1,-1h-6c-0.552,0 -1,0.448 -1,1v4h3v-2c0,-0.552 0.448,-1 1,-1s1,0.448 1,1v2z" fill="#5b0b6e"/>
  <path d="m19.6,38.59 l-0.778,-3 -11.408,11.41 1.172,1.172c0.781,0.781 2.047,0.781 2.828,0l4.878,-4.872 2.785,-2.784c0.503,-0.504 0.702,-1.237 0.523,-1.926z" fill="#5b0b6e"/>
  <path d="m42,31c0,0.552 0.448,1 1,1h4c0.552,0 1,-0.448 1,-1v-2h-6z" fill="#5b0b6e"/>
  <path d="m55,11h-10v-6c-0.003,-2.76 -2.24,-4.997 -5,-5h-10c-2.76,0.003 -4.997,2.24 -5,5v6h-6.053c-0.145,0.449 -0.394,0.857 -0.725,1.192l-2.7,2.7 6.015,23.2c0.352,1.372 -0.044,2.829 -1.043,3.833l-1.08,1.075h32.586c1.105,0 2,-0.895 2,-2v-12h-4v2c0,1.657 -1.343,3 -3,3h-4c-1.657,0 -3,-1.343 -3,-3v-2h-10v2c0,1.657 -1.343,3 -3,3h-3.68c-0.552,0 -1,-0.448 -1,-1s0.448,-1 1,-1h3.68c0.552,0 1,-0.448 1,-1v-2h-6.24c-0.552,0 -1,-0.448 -1,-1s0.448,-1 1,-1h1.24v-2c0,-0.552 0.448,-1 1,-1s1,0.448 1,1v2h3v-4c0,-0.552 -0.448,-1 -1,-1h-6c-0.552,0 -1,-0.448 -1,-1s0.448,-1 1,-1h6c1.657,0 3,1.343 3,3v4h10v-4c0,-1.657 1.343,-3 3,-3h6c1.657,0 3,1.343 3,3v4h3c0.552,0 1,-0.448 1,-1v-14c0,-0.552 -0.448,-1 -1,-1zM48,39h2v-2c0,-0.552 0.448,-1 1,-1s1,0.448 1,1v3c0,0.552 -0.448,1 -1,1h-3c-0.552,0 -1,-0.448 -1,-1s0.448,-1 1,-1zM27,11v-6c0,-1.657 1.343,-3 3,-3h10c1.657,0 3,1.343 3,3v6z" fill="#5b0b6e"/>
</svg>