<svg xmlns="http://www.w3.org/2000/svg" viewBox="0 0 512 512">
  <path d="M119.79,119.79m-104.79,0a104.79,104.79 0,1 1,209.58 0a104.79,104.79 0,1 1,-209.58 0" fill="none" stroke="#5b0b6e" stroke-width="30" stroke-linejoin="round" stroke-linecap="round"/>
  <path d="M156.04,140.52c-4.12,14.97 -19.89,26.55 -36.17,26.55c-16.49,0 -32.4,-11.28 -36.32,-26.55" fill="none" stroke="#5b0b6e" stroke-width="30" stroke-linejoin="round" stroke-linecap="round"/>
  <path d="M392.21,119.79m-104.79,0a104.79,104.79 0,1 1,209.58 0a104.79,104.79 0,1 1,-209.58 0" fill="none" stroke="#5b0b6e" stroke-width="30" stroke-linejoin="round" stroke-linecap="round"/>
  <path d="M355.96,163.08c4.12,-14.97 19.89,-26.55 36.17,-26.55c16.49,0 32.4,11.28 36.32,26.55" fill="none" stroke="#5b0b6e" stroke-width="30" stroke-linejoin="round" stroke-linecap="round"/>
  <path d="M392.21,392.21m-104.79,0a104.79,104.79 0,1 1,209.58 0a104.79,104.79 0,1 1,-209.58 0" fill="none" stroke="#5b0b6e" stroke-width="30" stroke-linejoin="round" stroke-linecap="round"/>
  <path d="M119.79,392.21m-104.79,0a104.79,104.79 0,1 1,209.58 0a104.79,104.79 0,1 1,-209.58 0" fill="none" stroke="#5b0b6e" stroke-width="30" stroke-linejoin="round" stroke-linecap="round"/>
  <path d="M78.44,423.39L161.14,423.39" fill="none" stroke="#5b0b6e" stroke-width="30" stroke-linejoin="round" stroke-linecap="round"/>
  <path d="M365.65,429.39c0,0 19.75,-18.08 53.13,-9.21" fill="none" stroke="#5b0b6e" stroke-width="30" stroke-linejoin="round" stroke-linecap="round"/>
  <path d="M88.33,89.37L88.33,89.37" fill="none" stroke="#5b0b6e" stroke-width="30" stroke-linejoin="round" stroke-linecap="round"/>
  <path d="M147.91,89.37L147.91,89.37" fill="none" stroke="#5b0b6e" stroke-width="30" stroke-linejoin="round" stroke-linecap="round"/>
  <path d="M362.42,91.45L362.42,91.45" fill="none" stroke="#5b0b6e" stroke-width="30" stroke-linejoin="round" stroke-linecap="round"/>
  <path d="M422,91.45L422,91.45" fill="none" stroke="#5b0b6e" stroke-width="30" stroke-linejoin="round" stroke-linecap="round"/>
  <path d="M362.42,362.06L362.42,362.06" fill="none" stroke="#5b0b6e" stroke-width="30" stroke-linejoin="round" stroke-linecap="round"/>
  <path d="M422,362.06L422,362.06" fill="none" stroke="#5b0b6e" stroke-width="30" stroke-linejoin="round" stroke-linecap="round"/>
  <path d="M88.33,362.06L88.33,362.06" fill="none" stroke="#5b0b6e" stroke-width="30" stroke-linejoin="round" stroke-linecap="round"/>
  <path d="M147.91,362.06L147.91,362.06" fill="none" stroke="#5b0b6e" stroke-width="30" stroke-linejoin="round" stroke-linecap="round"/>
</svg>